<svg width="23" height="27" viewBox="0 0 23 27" xmlns="http://www.w3.org/2000/svg"><g fill="none" fill-rule="evenodd"><path fill="#000" d="M10 1V0H7v1zM10 12h1V7h3V6h-3V1h-1zM6 11v3h1V1H6v1H5v1H4v8h1zM3 11h1v1H3zM18 7V6h-3v1zM22 8v10h1V8zM18 11h1V8h3V7h-4zM21 21h1v-3h-1z"/><path fill="#000" d="M20 24H8v-3H7v-1H6v-1H5v-1H4v-1H3v-5H2v1H1v1H0v4h1v1h1v1h1v1h1v1h1v5h14v-1h1v-1h1v-4h-1zM14 10h1V7h-1z"/><path fill="#000" d="M12 22h1v-5h-1zM14 22h1v-5h-1zM16 22h1v-5h-1z"/><path d="M19 8v3h-1V7h-3v3h-1V7h-3v5h-1V1H7v13H6v-3H4v1H3v5h1v1h1v1h1v1h1v1h1v3h12v-3h1v-3h1V8h-3zm-7 9h1v5h-1v-5zm2 0h1v5h-1v-5zm2 0h1v5h-1v-5z" fill="#FFF"/></g></svg>